{"glyphs":{":":{"x_min":0,"x_max":274,"ha":274,"o":"m 66 87 l 162 157 l 236 62 l 138 -12 z m 143 473 l 239 542 l 312 447 l 214 374 z"},"$":{"x_min":0,"x_max":510,"ha":510,"o":"m 236 -72 l 251 1 q 237 0 230 0 q 138 0 60 26 l 120 88 q 190 42 258 37 l 296 228 l 264 250 q 175 309 175 373 q 175 431 223 472 q 271 513 355 526 l 371 603 l 401 603 l 386 530 q 451 530 521 504 l 495 397 l 465 397 q 469 415 469 425 q 469 487 379 495 l 342 305 l 369 285 q 425 245 441 223 q 458 201 458 167 q 458 111 410 67 q 361 22 282 5 l 266 -72 z m 315 324 l 349 494 q 249 482 249 410 q 249 378 299 337 z m 289 40 q 384 56 384 128 q 384 165 339 196 l 322 208 z"},"?":{"x_min":0,"x_max":500,"ha":500,"o":"m 146 59 l 223 121 l 282 40 l 206 -12 z m 191 189 q 201 271 306 361 l 326 379 q 442 479 442 592 q 442 646 413 678 q 384 711 336 711 q 226 711 195 590 l 165 590 l 188 706 q 289 741 367 741 q 449 741 498 705 q 547 668 547 608 q 547 528 446 442 l 395 398 q 312 328 292 231 l 289 218 z"},"<":{"x_min":0,"x_max":632,"ha":632,"o":"m 692 554 l 677 489 l 229 283 l 598 81 l 586 24 l 109 289 z"},"'":{"x_min":0,"x_max":229,"ha":229,"o":"m 220 506 l 175 771 l 295 771 l 250 506 z"},"=":{"x_min":0,"x_max":632,"ha":632,"o":"m 86 178 l 97 232 l 627 232 l 617 178 z m 120 346 l 131 400 l 661 400 l 650 346 z"},"a":{"x_min":0,"x_max":668,"ha":668,"o":"m 480 265 l 472 265 q 417 143 339 65 q 261 -12 193 -12 q 90 -12 90 117 q 90 259 204 395 q 321 536 490 536 q 560 536 636 530 l 601 386 l 553 145 q 542 88 542 71 q 542 41 571 41 q 620 41 716 148 l 708 103 q 601 -12 516 -12 q 445 -12 445 62 q 445 86 457 145 z m 520 460 q 458 488 398 488 q 309 488 256 375 q 193 243 193 137 q 193 60 238 60 q 280 60 359 148 q 438 236 498 350 z"},"L":{"x_min":0,"x_max":669,"ha":669,"o":"m 9 0 l 78 72 l 106 72 q 165 72 191 106 q 218 140 238 236 l 288 486 q 310 597 389 669 q 468 741 568 741 q 613 741 672 709 l 648 587 l 617 587 q 618 600 618 608 q 618 699 524 699 q 432 699 401 542 l 356 317 q 336 216 300 162 q 264 107 188 65 l 461 61 q 579 61 668 116 l 661 79 q 593 19 558 2 q 524 -15 467 -15 z"},"3":{"x_min":0,"x_max":536,"ha":536,"o":"m 19 -118 l 83 -53 q 157 -121 234 -121 q 298 -121 344 -76 q 390 -32 390 30 q 390 97 334 139 q 278 182 189 182 q 174 182 149 179 l 183 254 q 228 254 269 250 q 338 268 384 313 q 430 359 430 410 q 430 455 399 483 q 368 512 320 512 q 208 512 180 404 l 150 404 l 166 513 q 271 542 348 542 q 428 542 476 511 q 525 481 525 431 q 525 323 326 241 q 477 194 477 69 q 477 -21 393 -89 q 310 -157 197 -157 q 104 -157 19 -118 z"},";":{"x_min":0,"x_max":272,"ha":272,"o":"m 64 86 l 161 157 l 233 61 q 228 -38 172 -91 q 116 -145 18 -145 l 45 -114 q 122 -107 137 -12 z m 141 473 l 237 542 l 311 447 l 213 374 z"},"J":{"x_min":0,"x_max":531,"ha":531,"o":"m -57 -91 l 10 -23 q 54 -118 146 -118 q 207 -118 241 -71 q 276 -25 298 87 l 410 650 l 280 650 l 349 723 l 663 723 l 588 650 l 513 650 l 417 172 q 386 14 306 -72 q 226 -157 108 -157 q 18 -157 -57 -91 z"},"V":{"x_min":0,"x_max":892,"ha":892,"o":"m 499 -12 l 501 115 q 501 494 433 641 q 360 795 254 795 q 159 795 86 674 l 61 687 q 169 855 298 855 q 604 855 604 152 l 761 396 q 903 619 903 674 q 903 693 859 693 l 820 693 l 826 723 l 1036 723 l 1029 693 l 989 693 l 550 0 z"},"\"":{"x_min":0,"x_max":374,"ha":374,"o":"m 226 530 l 193 771 l 289 771 l 256 530 z m 395 530 l 361 771 l 458 771 l 425 530 z"},"7":{"x_min":0,"x_max":555,"ha":555,"o":"m 65 -157 q 85 -49 185 67 l 486 387 l 539 446 l 137 446 l 171 530 l 631 530 l 609 476 q 208 48 180 -145 z"},"S":{"x_min":0,"x_max":581,"ha":581,"o":"m 57 27 l 125 97 q 214 24 311 24 q 377 24 420 62 q 462 100 462 159 q 462 218 382 289 l 313 350 q 237 417 219 444 q 200 472 200 518 q 200 609 277 675 q 354 741 461 741 q 529 741 621 701 l 596 578 l 565 578 q 566 593 566 599 q 566 646 529 674 q 492 702 431 702 q 368 702 325 665 q 282 627 282 572 q 282 535 304 504 q 326 474 395 415 l 452 365 q 548 283 548 211 q 548 117 458 49 q 368 -18 243 -18 q 147 -18 57 27 z"},"}":{"x_min":0,"x_max":353,"ha":353,"o":"m 19 -145 l 24 -115 q 84 -111 108 -79 q 133 -48 136 29 l 140 96 q 145 209 177 267 q 209 324 287 356 q 213 393 213 472 q 213 508 237 578 l 268 670 q 286 722 286 743 q 286 797 209 813 l 215 843 q 364 826 364 726 q 364 688 340 618 l 306 518 q 282 450 282 422 q 282 368 359 368 l 384 368 l 378 337 l 356 337 q 283 337 259 305 q 235 272 228 161 l 222 65 q 215 -42 168 -91 q 122 -139 19 -145 z"},"Z":{"x_min":0,"x_max":669,"ha":669,"o":"m 41 -12 l 54 52 l 597 625 q 543 614 500 614 q 456 614 395 628 l 341 641 q 324 646 312 648 q 272 658 254 658 q 216 658 165 628 l 173 668 q 248 735 324 735 q 343 735 386 726 l 442 713 q 507 699 572 699 q 646 699 704 723 l 690 656 l 158 88 q 218 103 266 103 q 295 103 349 93 l 437 78 q 446 77 482 69 q 516 63 534 63 q 608 63 667 141 l 658 91 q 575 -18 495 -18 q 457 -18 383 -2 l 318 12 q 264 24 222 24 q 165 24 41 -12 z"},"x":{"x_min":0,"x_max":710,"ha":710,"o":"m 68 0 l 111 89 q 129 79 152 79 q 226 79 338 213 l 367 249 l 301 405 q 276 464 252 464 q 223 464 163 384 l 176 448 q 247 542 298 542 q 345 542 387 447 l 442 320 l 474 360 q 617 542 708 542 q 732 542 758 526 l 708 437 q 688 449 669 449 q 588 449 479 315 l 456 287 l 529 117 q 554 56 580 56 q 614 56 676 128 l 665 70 q 590 -12 532 -12 q 477 -12 443 68 l 380 218 l 340 167 q 199 -12 120 -12 q 100 -12 68 0 z"},")":{"x_min":0,"x_max":353,"ha":353,"o":"m 229 816 l 235 843 q 380 731 380 491 q 380 303 282 121 q 184 -61 38 -145 l 45 -105 q 133 -35 188 85 q 234 185 266 327 q 298 469 298 575 q 298 725 229 816 z"},"&":{"x_min":0,"x_max":819,"ha":819,"o":"m 500 66 q 395 -18 294 -18 q 209 -18 153 37 q 97 92 97 175 q 97 332 327 425 q 300 499 300 541 q 300 618 365 679 q 431 741 512 741 q 570 741 605 708 q 641 675 641 621 q 641 487 425 419 q 487 251 564 147 q 640 227 652 325 l 552 325 l 598 397 l 728 397 q 824 397 876 429 l 838 369 q 780 325 729 325 l 713 325 q 675 208 581 123 q 650 36 695 36 q 733 36 797 79 q 803 82 813 89 l 806 53 q 720 -18 644 -18 q 600 -18 573 -2 q 545 14 500 66 z m 416 448 q 561 505 561 625 q 561 711 490 711 q 446 711 418 675 q 391 638 391 579 q 391 525 416 448 z m 484 91 q 396 220 334 397 q 199 336 199 204 q 199 134 241 88 q 283 42 348 42 q 405 42 484 91 z"},"_":{"x_min":0,"x_max":500,"ha":500,"o":"m 36 -63 l 48 0 l 452 0 l 439 -63 z"},"v":{"x_min":0,"x_max":705,"ha":705,"o":"m 303 -12 l 305 54 q 305 247 270 359 q 235 470 175 470 q 114 470 46 353 l 60 425 q 148 542 225 542 q 394 542 394 115 l 394 88 l 434 136 q 612 351 612 449 q 612 495 580 530 l 685 542 q 708 506 708 477 q 708 436 675 385 q 642 333 530 204 l 355 0 z"},"O":{"x_min":0,"x_max":783,"ha":783,"o":"m 374 -18 q 253 -18 183 57 q 113 131 113 259 q 113 451 245 596 q 377 741 552 741 q 671 741 741 668 q 811 594 811 468 q 811 268 682 125 q 553 -18 374 -18 z m 393 15 q 520 15 610 149 q 701 284 701 472 q 701 710 536 710 q 409 710 317 577 q 226 444 226 259 q 226 15 393 15 z"},"(":{"x_min":0,"x_max":353,"ha":353,"o":"m 264 -118 l 258 -145 q 113 -33 113 208 q 113 396 211 578 q 310 760 456 843 l 448 804 q 360 733 305 614 q 259 513 227 372 q 195 230 195 124 q 195 -26 264 -118 z"},"C":{"x_min":0,"x_max":684,"ha":684,"o":"m 650 44 q 495 -18 378 -18 q 252 -18 183 53 q 113 124 113 252 q 113 456 246 598 q 379 741 568 741 q 681 741 778 712 l 736 578 l 706 578 q 710 601 710 616 q 710 658 664 685 q 618 711 543 711 q 432 711 348 611 q 292 545 257 448 q 222 350 222 263 q 222 157 277 97 q 333 36 429 36 q 538 36 660 91 z"},"W":{"x_min":0,"x_max":1159,"ha":1159,"o":"m 452 -12 l 460 278 q 460 533 405 664 q 350 795 242 795 q 154 795 75 688 l 53 702 q 176 855 285 855 q 425 855 496 696 q 557 560 557 253 l 559 193 l 809 701 l 855 714 q 863 639 875 563 l 885 501 q 904 380 923 161 l 1028 367 q 1149 605 1149 668 q 1149 693 1094 693 l 1076 693 l 1083 723 l 1287 723 l 1281 693 l 1236 693 l 878 0 l 828 -12 l 830 48 q 830 326 780 556 l 502 0 z"},"A":{"x_min":0,"x_max":975,"ha":975,"o":"m 44 41 l 110 107 q 157 36 232 36 q 304 36 367 96 q 430 156 518 308 l 729 671 q 675 678 637 678 q 535 678 480 627 q 424 576 424 481 l 329 434 q 338 525 380 585 q 426 652 489 681 q 552 709 672 717 q 696 719 744 723 l 844 741 l 850 578 l 878 241 q 888 123 906 86 q 924 48 970 48 q 979 48 1027 51 l 1021 19 l 797 -18 l 777 223 l 511 223 q 434 89 365 35 q 296 -18 201 -18 q 110 -18 44 41 z m 532 259 l 773 259 l 742 625 z"},"f":{"x_min":0,"x_max":409,"ha":409,"o":"m -208 -319 l -138 -246 q -91 -265 -42 -265 q 27 -265 65 -218 q 103 -170 122 -61 l 215 494 l 106 494 l 140 530 l 223 530 l 224 537 q 252 678 353 767 q 453 855 586 855 q 628 855 665 847 l 595 773 q 549 801 501 801 q 428 801 393 758 q 357 715 334 600 l 320 530 l 502 530 l 463 487 q 401 494 338 494 l 313 494 l 242 74 q 209 -117 113 -221 q 17 -325 -128 -325 q -166 -325 -208 -319 z"},"Q":{"x_min":0,"x_max":742,"ha":742,"o":"m 62 38 l 120 94 l 198 63 q 376 76 481 163 q 552 221 596 318 q 641 415 641 509 q 641 596 597 653 q 554 711 488 711 q 386 711 310 608 q 234 505 234 368 q 234 235 324 235 q 377 235 436 274 l 427 233 q 350 175 275 175 q 211 175 173 223 q 135 271 135 350 q 135 500 252 620 q 368 741 512 741 q 613 741 682 671 q 751 602 751 501 q 751 339 627 217 q 502 95 273 33 l 577 -90 q 658 -124 713 -124 q 775 -124 850 -78 l 843 -116 q 752 -193 682 -193 q 643 -193 569 -164 z"},"w":{"x_min":0,"x_max":945,"ha":945,"o":"m 289 -12 q 292 36 292 84 q 292 303 268 388 q 244 473 184 473 q 126 473 50 354 l 63 420 q 149 542 230 542 q 380 542 380 148 l 380 98 q 545 334 569 525 l 614 536 q 681 322 681 110 q 752 202 802 304 q 852 406 852 459 q 852 490 830 530 l 939 536 q 948 514 948 495 q 948 456 903 377 q 858 299 755 161 l 729 125 l 638 0 l 589 -12 l 590 47 q 590 246 565 373 q 448 128 342 0 z"},"-":{"x_min":0,"x_max":313,"ha":313,"o":"m 95 265 l 116 337 l 338 337 l 318 265 z"},"E":{"x_min":0,"x_max":735,"ha":735,"o":"m 103 0 l 175 72 l 183 72 q 257 72 285 103 q 313 134 334 238 l 423 685 q 322 685 260 631 q 198 577 198 490 l 198 479 l 104 433 q 116 581 220 652 q 324 723 528 723 l 815 723 l 771 584 l 741 584 q 745 604 745 619 q 745 657 700 672 q 656 687 540 687 l 524 687 l 468 397 l 686 397 l 636 347 q 525 361 485 361 l 460 361 l 450 309 q 433 220 398 168 q 363 116 286 64 l 521 55 l 572 54 q 651 54 721 109 l 713 69 q 626 -18 550 -18 l 528 -18 z"},"s":{"x_min":0,"x_max":451,"ha":451,"o":"m 34 17 l 98 83 q 161 36 227 36 q 268 36 295 57 q 323 79 323 110 q 323 145 268 205 l 224 253 q 159 325 159 373 q 159 439 222 490 q 285 542 366 542 q 410 542 465 523 l 444 416 l 413 416 l 415 424 q 416 428 416 434 q 416 500 331 500 q 235 500 235 424 q 235 385 292 321 l 332 277 q 397 203 397 156 q 397 90 328 39 q 259 -12 170 -12 q 108 -12 34 17 z"},">":{"x_min":0,"x_max":632,"ha":632,"o":"m 109 24 l 124 90 l 571 295 l 203 498 l 214 554 l 692 289 z"},"l":{"x_min":0,"x_max":339,"ha":339,"o":"m 393 150 l 384 105 q 269 -12 186 -12 q 116 -12 116 62 q 116 93 126 145 l 193 482 q 229 659 326 757 q 423 855 563 855 q 612 855 651 845 l 584 775 q 527 801 486 801 q 409 801 370 745 q 331 688 299 530 l 223 145 q 211 88 211 71 q 211 41 240 41 q 273 41 367 127 q 374 134 393 150 z"},"8":{"x_min":0,"x_max":596,"ha":596,"o":"m 284 358 l 275 365 q 207 413 207 490 q 207 567 283 627 q 360 687 459 687 q 529 687 573 653 q 618 620 618 567 q 618 466 442 369 q 564 292 564 203 q 564 121 478 54 q 392 -12 285 -12 q 204 -12 149 32 q 95 76 95 142 q 95 257 284 358 z m 412 386 q 536 463 536 547 q 536 591 503 621 q 471 650 422 650 q 368 650 330 613 q 292 576 292 523 q 292 465 380 407 z m 309 338 q 191 275 191 155 q 191 95 229 60 q 267 24 330 24 q 387 24 429 66 q 472 107 472 164 q 472 232 350 312 z"},"\\":{"x_min":0,"x_max":507,"ha":507,"o":"m 417 -145 l 179 843 l 228 843 l 467 -145 z"},"e":{"x_min":0,"x_max":542,"ha":542,"o":"m 526 133 l 519 96 q 363 -12 254 -12 q 185 -12 141 36 q 98 85 98 162 q 98 300 204 421 q 309 542 429 542 q 472 542 499 513 q 526 484 526 437 q 526 343 430 276 q 334 208 202 208 l 201 187 q 201 44 306 44 q 396 44 526 133 z m 203 239 q 312 248 374 295 q 435 343 435 418 q 435 493 381 493 q 322 493 268 415 q 213 337 203 239 z"},"b":{"x_min":0,"x_max":615,"ha":615,"o":"m 91 0 l 125 145 l 193 482 q 228 659 325 757 q 423 855 562 855 q 611 855 650 845 l 583 775 q 526 801 485 801 q 408 801 369 745 q 330 688 299 530 l 246 265 l 254 265 q 311 388 388 465 q 465 542 533 542 q 637 542 637 413 q 637 271 524 134 q 408 -6 240 -6 q 215 -6 177 -4 z m 207 69 q 268 42 329 42 q 417 42 471 154 q 534 287 534 393 q 534 470 488 470 q 447 470 368 382 q 289 293 229 180 z"},"%":{"x_min":0,"x_max":759,"ha":759,"o":"m 261 361 q 206 361 173 396 q 139 432 139 490 q 139 586 194 655 q 250 723 328 723 q 385 723 419 688 q 453 653 453 594 q 453 497 397 429 q 341 361 261 361 z m 211 485 q 211 392 270 392 q 314 392 351 455 q 387 519 387 598 q 387 693 328 693 q 282 693 247 630 q 211 566 211 485 z m 576 0 q 521 0 488 35 q 454 70 454 128 q 454 225 509 293 q 564 361 642 361 q 700 361 734 327 q 768 292 768 233 q 768 135 712 68 q 656 0 576 0 z m 526 123 q 526 30 585 30 q 630 30 666 94 q 702 157 702 236 q 702 332 643 332 q 597 332 562 268 q 526 205 526 123 z m 89 -18 l 754 741 l 818 741 l 153 -18 z"},"m":{"x_min":0,"x_max":1024,"ha":1024,"o":"m 131 -6 l 167 145 l 215 386 q 227 442 227 459 q 227 489 198 489 q 150 489 52 382 l 61 427 q 167 542 253 542 q 323 542 323 468 q 323 443 312 386 l 288 265 l 295 265 q 357 392 431 467 q 505 542 568 542 q 601 542 623 516 q 645 490 645 452 q 645 423 637 384 l 613 265 l 620 265 q 674 387 748 465 q 822 542 883 542 q 970 542 970 450 q 970 423 962 383 l 915 145 q 903 88 903 71 q 903 41 932 41 q 980 41 1078 148 l 1069 103 q 962 -12 877 -12 q 806 -12 806 62 q 806 85 818 145 l 865 383 q 872 415 872 430 q 872 470 842 470 q 757 470 596 177 l 559 0 l 463 -6 l 540 382 q 546 414 546 429 q 546 470 517 470 q 480 470 409 384 q 337 298 270 173 l 234 0 z"},"#":{"x_min":0,"x_max":632,"ha":632,"o":"m 95 0 l 200 223 l 82 223 l 88 271 l 223 271 l 308 452 l 127 452 l 134 500 l 331 500 l 436 723 l 490 723 l 385 500 l 521 500 l 626 723 l 681 723 l 576 500 l 694 500 l 688 452 l 553 452 l 468 271 l 648 271 l 642 223 l 446 223 l 340 0 l 286 0 l 391 223 l 254 223 l 149 0 z m 277 271 l 414 271 l 499 452 l 362 452 z"},",":{"x_min":0,"x_max":283,"ha":283,"o":"m 70 86 l 167 157 l 239 61 q 234 -38 178 -91 q 122 -145 24 -145 l 52 -114 q 128 -107 143 -12 z"},"n":{"x_min":0,"x_max":711,"ha":711,"o":"m 131 -6 l 167 145 l 215 386 q 227 442 227 459 q 227 489 198 489 q 150 489 52 382 l 61 427 q 167 542 253 542 q 323 542 323 469 q 323 444 312 386 l 288 265 l 295 265 q 356 390 433 466 q 510 542 577 542 q 657 542 657 453 q 657 424 648 383 l 601 145 q 590 88 590 71 q 590 41 619 41 q 667 41 765 148 l 755 103 q 649 -12 563 -12 q 493 -12 493 62 q 493 86 505 145 l 552 384 q 558 412 558 431 q 558 470 529 470 q 436 470 270 174 l 234 0 z"},"h":{"x_min":0,"x_max":664,"ha":664,"o":"m 84 -6 l 121 145 l 188 482 q 223 659 320 757 q 417 855 557 855 q 605 855 645 845 l 578 775 q 521 801 480 801 q 403 801 364 745 q 325 688 293 530 l 241 265 l 249 265 q 309 390 386 466 q 463 542 529 542 q 610 542 610 453 q 610 424 602 383 l 554 145 q 543 88 543 71 q 543 41 572 41 q 621 41 717 148 l 708 103 q 602 -12 517 -12 q 446 -12 446 62 q 446 86 458 145 l 505 384 q 511 412 511 431 q 511 470 481 470 q 389 470 223 174 l 188 0 z"},"z":{"x_min":0,"x_max":608,"ha":608,"o":"m 70 -12 l 95 67 l 512 449 q 489 447 478 447 q 458 447 401 454 l 341 461 q 312 465 291 465 q 223 465 153 406 l 161 449 q 262 537 341 537 q 363 537 392 533 l 434 527 q 466 523 491 523 q 559 523 611 542 l 585 461 l 191 87 q 220 90 239 90 q 275 90 296 87 l 328 83 q 361 78 393 78 q 505 78 584 150 l 575 103 q 470 -6 379 -6 q 357 -6 312 -1 l 277 2 q 246 6 202 6 q 126 6 70 -12 z"},"B":{"x_min":0,"x_max":786,"ha":786,"o":"m 103 0 l 174 72 l 185 72 q 258 72 286 106 q 313 139 337 255 l 422 685 q 322 685 260 631 q 198 577 198 490 l 198 479 l 103 433 q 115 583 219 653 q 323 723 532 723 q 680 723 743 691 q 806 659 806 585 q 806 437 582 377 q 770 317 770 211 q 770 117 667 52 q 564 -12 414 -12 l 298 -8 z m 466 389 l 491 389 q 582 389 641 442 q 700 496 700 578 q 700 693 539 693 l 526 693 z m 284 63 l 335 52 q 410 36 492 36 q 660 36 660 193 q 660 270 610 314 q 560 358 474 358 l 459 358 l 449 303 q 417 143 284 63 z"},"K":{"x_min":0,"x_max":990,"ha":990,"o":"m 39 45 l 108 116 q 157 36 245 36 q 374 36 415 244 l 501 678 q 477 682 466 682 q 389 682 334 625 q 279 568 279 488 l 279 481 l 184 435 q 195 575 294 649 q 394 723 569 723 l 613 723 l 543 373 l 799 615 q 932 741 1015 741 q 1048 741 1080 723 l 1012 651 q 991 668 972 668 q 915 668 813 587 q 710 505 636 400 q 654 370 730 237 q 838 48 917 48 q 943 48 1008 89 l 1000 52 q 917 -18 858 -18 q 793 -18 726 63 q 659 144 542 366 l 529 303 q 502 166 407 78 q 312 -9 190 -9 q 101 -9 39 45 z"},"R":{"x_min":0,"x_max":877,"ha":877,"o":"m 103 0 l 175 72 l 181 72 q 184 72 191 71 q 200 69 210 69 q 260 69 287 106 q 315 142 333 230 l 423 685 q 322 685 260 631 q 198 577 198 490 l 198 479 l 104 433 q 117 583 220 653 q 324 723 535 723 q 700 723 766 691 q 832 660 832 581 q 832 451 642 359 l 759 163 q 821 58 852 58 q 885 58 971 144 l 961 98 q 854 -12 804 -12 q 738 -12 658 135 l 548 337 l 456 337 l 447 293 q 418 148 285 64 l 476 60 l 409 -12 z m 462 368 l 591 368 q 725 433 725 568 q 725 693 546 693 l 527 693 z"},"T":{"x_min":0,"x_max":715,"ha":715,"o":"m 189 0 l 261 72 l 269 70 q 274 69 297 69 q 351 69 377 108 q 403 146 426 259 l 503 650 l 380 650 q 192 650 192 502 q 192 484 196 458 l 95 411 q 115 555 219 639 q 323 723 481 723 l 688 723 q 828 723 874 741 q 919 760 935 824 l 1008 854 q 974 763 876 707 q 779 650 655 650 l 606 650 l 538 310 q 520 218 485 165 q 449 112 374 64 l 562 60 l 494 -12 z"},"P":{"x_min":0,"x_max":765,"ha":765,"o":"m 103 0 l 175 72 l 185 72 l 206 72 q 263 72 290 110 q 316 148 339 265 l 422 685 q 322 685 260 631 q 198 577 198 490 l 198 479 l 103 433 q 117 585 221 654 q 325 723 541 723 q 696 723 762 690 q 828 656 828 578 q 828 516 783 451 q 737 386 668 351 q 589 311 487 311 l 474 311 l 492 341 l 501 341 q 595 341 658 402 q 722 464 722 555 q 722 693 526 693 l 448 297 q 418 148 286 64 l 474 60 l 407 -12 z"},"|":{"x_min":0,"x_max":241,"ha":241,"o":"m 59 -145 l 241 771 l 307 771 l 125 -145 z"},"t":{"x_min":0,"x_max":456,"ha":456,"o":"m 222 494 l 110 494 l 144 530 l 229 530 l 257 668 l 358 693 l 326 530 l 510 530 l 470 487 q 407 494 358 494 l 318 494 l 252 160 q 242 108 242 87 q 242 48 276 48 q 329 48 420 126 l 411 82 q 316 -12 229 -12 q 146 -12 146 80 q 146 112 157 167 z"},"M":{"x_min":0,"x_max":1159,"ha":1159,"o":"m 39 45 l 109 117 q 158 36 246 36 q 304 36 348 84 q 393 133 409 214 l 501 678 q 476 682 466 682 q 386 682 332 624 q 278 567 278 481 l 184 435 q 194 571 292 647 q 391 723 558 723 l 597 723 q 688 471 729 206 l 1049 723 l 1154 735 l 1117 578 l 1037 179 q 1027 126 1027 94 q 1027 51 1079 51 q 1105 51 1148 57 l 1142 25 l 901 -22 l 1027 613 l 693 78 l 643 70 l 643 84 q 643 275 550 559 l 510 359 q 437 -9 190 -9 q 104 -9 39 45 z"},"g":{"x_min":0,"x_max":614,"ha":614,"o":"m 152 8 q 93 37 93 125 q 93 270 210 405 q 324 536 493 536 q 525 536 629 530 l 595 386 l 572 272 q 554 183 548 141 q 521 -33 494 -100 q 467 -167 398 -231 q 297 -325 165 -325 q 79 -325 25 -292 q -28 -258 -28 -205 q -28 -97 152 8 z m 513 459 q 454 488 396 488 q 331 488 286 430 q 250 384 221 294 q 192 205 192 141 q 192 72 236 72 q 332 72 491 350 z m 474 265 l 466 265 q 415 150 342 81 q 270 11 190 -1 q 62 -90 62 -166 q 62 -214 110 -249 q 158 -283 226 -283 q 313 -283 364 -215 q 414 -147 436 0 z"},"j":{"x_min":0,"x_max":331,"ha":331,"o":"m -213 -314 l -147 -246 q -96 -271 -45 -271 q 83 -271 123 -68 l 199 313 q 212 386 212 410 q 212 451 181 451 q 158 451 102 434 l 108 464 l 347 542 l 310 386 l 250 83 q 224 -47 193 -113 q 163 -178 104 -233 q 5 -325 -129 -325 q -173 -325 -213 -314 z m 242 627 l 274 693 l 414 783 l 371 693 z"},"i":{"x_min":0,"x_max":376,"ha":376,"o":"m 433 148 l 424 103 q 317 -12 232 -12 q 162 -12 162 62 q 162 86 173 144 l 207 313 q 220 386 220 410 q 220 451 188 451 q 167 451 110 434 l 116 464 l 354 542 l 317 386 l 270 145 q 258 88 258 72 q 258 41 287 41 q 335 41 433 148 z m 253 627 l 286 693 l 424 783 l 382 693 z"},"y":{"x_min":0,"x_max":693,"ha":693,"o":"m 120 -311 l 188 -243 q 236 -271 291 -271 q 359 -271 397 -223 q 435 -174 465 -47 l 541 265 l 535 265 q 478 149 418 74 q 359 0 325 0 q 290 0 272 38 q 254 77 241 181 l 217 371 q 204 476 173 476 q 143 476 75 391 l 84 440 q 161 542 229 542 q 269 542 285 507 q 302 472 316 359 l 337 196 q 348 108 374 108 q 404 108 459 193 q 469 208 568 374 l 605 530 l 709 536 l 666 384 l 581 37 q 537 -140 442 -232 q 347 -325 209 -325 q 157 -325 120 -311 z"},"@":{"x_min":0,"x_max":861,"ha":861,"o":"m 610 21 q 524 -18 442 -18 q 300 -18 208 67 q 116 151 116 282 q 116 445 236 583 q 373 741 578 741 q 716 741 808 653 q 901 565 901 435 q 901 318 828 231 q 755 144 657 144 q 572 144 572 211 q 572 221 588 290 l 592 310 l 582 310 q 485 145 394 145 q 304 145 304 258 q 304 374 385 473 q 465 572 560 572 q 583 572 641 557 q 644 556 654 553 l 699 553 l 644 273 q 638 246 638 226 q 638 181 688 181 q 755 181 813 262 q 871 343 871 440 q 871 555 785 633 q 699 711 573 711 q 409 711 278 581 q 146 450 146 288 q 146 167 229 90 q 312 12 441 12 q 518 12 599 49 z m 597 400 l 617 503 q 578 524 529 524 q 463 524 419 455 q 375 385 375 282 q 375 205 420 205 q 491 205 597 400 z"},".":{"x_min":0,"x_max":283,"ha":283,"o":"m 71 87 l 167 157 l 241 62 l 143 -12 z"},"p":{"x_min":0,"x_max":664,"ha":664,"o":"m -208 -316 l -142 -247 q -92 -271 -38 -271 q 86 -271 127 -65 l 203 313 q 216 386 216 410 q 216 451 185 451 q 162 451 105 434 l 112 464 l 350 542 l 313 384 l 289 265 l 297 265 q 353 388 430 465 q 508 542 576 542 q 680 542 680 413 q 680 262 561 127 q 442 -7 309 -7 q 295 -7 253 -2 q 248 -1 236 0 q 198 -158 103 -241 q 8 -325 -133 -325 q -168 -325 -208 -316 z m 250 69 q 311 42 372 42 q 460 42 514 154 q 577 287 577 393 q 577 470 531 470 q 490 470 411 382 q 333 293 272 180 z"},"X":{"x_min":0,"x_max":767,"ha":767,"o":"m 407 344 l 339 547 q 298 669 262 669 q 227 669 151 573 l 163 636 q 235 741 304 741 q 390 741 447 570 l 490 443 l 608 588 q 733 741 825 741 q 858 741 884 721 l 802 639 q 784 648 770 648 q 718 648 571 480 l 503 403 l 580 175 q 623 49 665 49 q 704 49 767 131 l 756 77 q 688 -18 617 -18 q 532 -18 482 125 l 420 303 l 269 116 q 160 -18 90 -18 q 45 -18 5 25 l 83 102 q 99 76 123 76 q 174 76 330 255 z"},"*":{"x_min":0,"x_max":509,"ha":509,"o":"m 296 337 l 327 492 l 209 392 l 162 392 l 310 518 l 163 518 l 179 560 l 327 560 l 225 681 l 267 681 l 345 587 l 372 723 l 429 741 l 401 593 l 509 681 l 559 681 l 409 560 l 560 560 l 542 518 l 401 518 l 501 392 l 460 392 l 381 492 l 354 355 z"},"Y":{"x_min":0,"x_max":818,"ha":818,"o":"m 196 -161 l 263 -97 q 321 -166 402 -166 q 525 -166 585 74 l 626 238 q 495 27 412 27 q 345 27 334 170 l 305 534 q 293 681 241 681 q 204 681 139 623 l 147 663 q 226 741 282 741 q 342 741 372 682 q 402 623 413 485 l 433 217 q 440 121 471 121 q 496 121 547 177 q 598 233 645 312 l 749 723 l 862 732 l 817 578 l 722 195 q 622 -205 355 -205 q 271 -205 196 -161 z"},"c":{"x_min":0,"x_max":546,"ha":546,"o":"m 525 134 l 518 96 q 357 -12 255 -12 q 184 -12 141 36 q 98 83 98 162 q 98 304 206 423 q 313 542 442 542 q 499 542 555 517 l 522 392 l 492 392 l 493 399 q 498 422 498 433 q 498 500 407 500 q 321 500 264 408 q 207 316 207 178 q 207 45 305 45 q 399 45 525 134 z"},"!":{"x_min":0,"x_max":253,"ha":253,"o":"m 80 62 l 156 121 l 213 42 l 137 -12 z m 156 188 l 198 577 l 228 723 l 327 741 l 294 577 l 183 198 z"},"/":{"x_min":0,"x_max":533,"ha":533,"o":"m -29 -145 l 593 843 l 658 843 l 37 -145 z"},"[":{"x_min":0,"x_max":353,"ha":353,"o":"m 76 -145 l 272 843 l 513 843 l 507 813 l 351 813 l 166 -114 l 323 -114 l 316 -145 z"},"6":{"x_min":0,"x_max":621,"ha":621,"o":"m 628 554 l 598 554 q 601 571 601 579 q 601 610 572 630 q 542 650 496 650 q 403 650 324 551 q 245 452 230 317 q 328 446 445 446 q 513 446 559 400 q 604 354 604 285 q 604 168 520 78 q 436 -12 326 -12 q 231 -12 176 53 q 120 119 120 230 q 120 410 243 548 q 366 687 525 687 q 585 687 656 658 z m 354 18 q 419 18 467 85 q 514 152 514 246 q 514 397 400 397 q 327 397 274 336 q 221 275 221 190 q 221 115 259 66 q 296 18 354 18 z"},"r":{"x_min":0,"x_max":563,"ha":563,"o":"m 138 -6 l 174 145 l 221 383 q 229 419 229 446 q 229 488 199 488 q 147 488 51 377 l 60 421 q 173 542 256 542 q 326 542 326 462 q 326 426 317 383 l 294 265 l 300 265 q 358 387 438 465 q 517 542 583 542 q 617 542 644 527 l 579 439 q 550 458 530 458 q 435 458 277 178 l 241 0 z"},"2":{"x_min":0,"x_max":568,"ha":568,"o":"m 60 0 l 86 78 q 454 274 454 409 q 454 453 423 482 q 392 512 346 512 q 229 512 198 404 l 168 404 l 183 516 q 286 542 359 542 q 450 542 504 508 q 557 473 557 415 q 557 353 507 306 q 457 260 267 147 l 148 78 l 517 78 l 486 0 z"},"{":{"x_min":0,"x_max":353,"ha":353,"o":"m 473 843 l 467 814 q 407 809 383 778 q 359 747 355 669 l 352 604 q 346 489 314 432 q 282 375 205 342 q 278 306 278 227 q 278 191 254 121 l 224 28 q 206 -23 206 -44 q 206 -99 282 -114 l 276 -145 q 127 -126 127 -27 q 127 11 152 81 l 186 181 q 209 249 209 277 q 209 332 132 332 l 107 332 l 113 361 l 135 361 q 208 361 232 394 q 256 427 263 538 l 270 634 q 277 741 324 790 q 371 838 473 843 z"},"9":{"x_min":0,"x_max":621,"ha":621,"o":"m 93 -30 l 124 -30 l 123 -50 q 123 -126 228 -126 q 320 -126 399 -27 q 479 73 493 208 q 396 78 277 78 q 208 78 162 125 q 116 171 116 242 q 116 360 200 451 q 285 542 394 542 q 489 542 545 477 q 601 411 601 299 q 601 119 478 -19 q 355 -157 194 -157 q 145 -157 65 -133 z m 367 506 q 301 506 254 440 q 207 375 207 283 q 207 132 322 132 q 397 132 451 192 q 504 252 504 335 q 504 410 466 458 q 427 506 367 506 z"}," ":{"x_min":0,"x_max":332,"ha":332,"o":""},"I":{"x_min":0,"x_max":452,"ha":452,"o":"m 6 0 l 79 72 l 112 72 q 167 72 194 109 q 221 145 242 252 l 321 650 l 189 650 l 260 723 l 578 723 l 503 650 l 424 650 l 355 305 q 323 146 191 65 l 381 60 l 311 -12 z"},"H":{"x_min":0,"x_max":1029,"ha":1029,"o":"m 354 358 l 387 397 l 446 397 l 502 678 q 477 682 467 682 q 389 682 334 625 q 279 568 279 488 l 279 481 l 185 435 q 207 723 587 723 l 613 723 l 549 397 l 850 397 l 879 543 q 907 688 991 771 q 1075 855 1189 855 q 1234 855 1269 843 l 1227 771 q 1177 813 1136 813 q 1084 813 1053 770 q 1022 727 1000 622 l 922 257 q 897 139 897 101 q 897 51 952 51 q 976 51 1020 56 l 1014 25 l 767 -18 l 842 358 l 541 358 l 529 300 q 501 162 407 75 q 313 -12 191 -12 q 101 -12 39 43 l 107 114 q 154 33 244 33 q 374 33 415 241 l 438 358 z"},"4":{"x_min":0,"x_max":653,"ha":653,"o":"m 395 20 l 31 35 l 39 75 l 532 530 l 583 542 l 492 82 l 637 75 l 615 10 l 479 16 q 468 -59 468 -87 q 468 -114 506 -114 l 548 -114 l 551 -145 l 258 -145 l 271 -114 l 314 -114 q 350 -114 361 -96 q 372 -78 395 20 z m 408 85 l 477 431 l 107 99 z"},"~":{"x_min":0,"x_max":632,"ha":632,"o":"m 94 214 q 136 380 253 380 q 290 380 371 333 l 425 302 q 492 264 526 264 q 582 264 623 358 l 653 358 q 605 199 492 199 q 446 199 376 239 l 323 270 q 247 314 221 314 q 164 314 124 214 z"},"D":{"x_min":0,"x_max":972,"ha":972,"o":"m 103 0 l 175 72 l 182 73 q 185 74 195 73 q 200 72 206 72 q 259 72 286 105 q 313 137 330 221 l 422 685 q 321 685 259 631 q 197 577 197 490 l 197 479 l 103 433 q 128 723 520 723 l 661 723 q 824 723 896 662 q 968 601 968 463 q 968 240 814 114 q 660 -12 389 -12 q 377 -12 343 -11 z m 279 62 l 366 47 q 437 35 510 35 q 611 35 667 62 q 723 90 771 163 q 855 292 855 450 q 855 693 587 693 l 526 693 l 451 318 q 431 216 396 164 q 361 112 279 62 z"},"^":{"x_min":0,"x_max":632,"ha":632,"o":"m 90 193 l 460 723 l 620 193 l 562 193 l 441 601 l 155 193 z"},"0":{"x_min":0,"x_max":664,"ha":664,"o":"m 333 -12 q 235 -12 177 45 q 120 102 120 199 q 120 342 212 442 q 303 542 434 542 q 536 542 594 487 q 651 431 651 334 q 651 188 560 88 q 468 -12 333 -12 z m 340 18 q 424 18 472 80 q 504 121 529 207 q 554 293 554 365 q 554 512 429 512 q 336 512 277 413 q 218 314 218 159 q 218 18 340 18 z"},"F":{"x_min":0,"x_max":766,"ha":766,"o":"m 355 334 l 390 374 l 441 374 l 503 685 q 403 685 341 631 q 278 577 278 490 l 279 479 l 184 433 q 196 583 300 653 q 404 723 613 723 l 895 723 l 851 584 l 820 584 q 826 604 826 623 q 826 687 626 687 l 605 687 l 543 374 l 756 374 l 708 324 q 630 334 560 334 l 536 334 l 507 191 q 472 11 369 -97 q 267 -205 131 -205 q 58 -205 0 -150 l 72 -77 q 111 -157 196 -157 q 274 -157 319 -86 q 364 -16 399 164 l 434 334 z"},"`":{"x_min":0,"x_max":584,"ha":584,"o":"m 551 665 l 490 626 q 455 697 388 756 l 446 801 q 507 741 551 665 z"},"k":{"x_min":0,"x_max":631,"ha":631,"o":"m 88 -6 l 124 145 l 191 482 q 226 659 323 757 q 421 855 561 855 q 609 855 648 845 l 582 775 q 524 801 484 801 q 419 801 377 757 q 353 731 339 692 q 325 653 297 530 l 249 317 l 254 317 q 300 417 375 480 q 450 542 525 542 q 607 542 607 462 q 607 379 540 323 q 473 267 348 247 q 487 54 554 54 q 596 54 660 113 l 653 79 q 556 -12 498 -12 q 451 -12 403 34 q 355 80 239 238 l 191 0 z m 244 265 l 243 259 l 260 259 q 362 259 437 314 q 512 370 512 446 q 512 494 474 494 q 391 494 244 265 z"},"u":{"x_min":0,"x_max":697,"ha":697,"o":"m 517 265 l 508 265 q 370 -12 238 -12 q 160 -12 160 80 q 160 106 167 146 l 215 386 q 226 442 226 459 q 226 489 197 489 q 149 489 52 382 l 61 427 q 167 542 252 542 q 323 542 323 469 q 323 444 312 386 l 264 146 q 257 113 257 100 q 257 60 286 60 q 323 60 397 149 q 472 237 534 355 l 569 530 l 673 536 l 637 386 l 589 145 q 578 88 578 71 q 578 41 606 41 q 655 41 752 148 l 743 103 q 636 -12 551 -12 q 480 -12 480 62 q 480 86 492 145 z"},"]":{"x_min":0,"x_max":353,"ha":353,"o":"m 416 843 l 220 -145 l -21 -145 l -16 -114 l 141 -114 l 326 813 l 169 813 l 175 843 z"},"U":{"x_min":0,"x_max":977,"ha":977,"o":"m 710 -18 l 741 132 q 633 -18 509 -18 q 422 -18 371 42 q 320 103 320 204 q 320 267 349 409 q 379 552 418 678 q 393 682 383 682 q 303 682 249 624 q 195 567 195 481 l 101 435 q 122 723 497 723 l 532 723 q 488 583 456 431 q 424 278 424 206 q 424 126 456 82 q 487 37 543 37 q 602 37 660 88 q 717 139 760 229 l 858 723 l 969 735 l 932 578 l 862 229 q 843 132 843 104 q 843 51 908 51 q 931 51 966 56 l 960 25 z"},"o":{"x_min":0,"x_max":583,"ha":583,"o":"m 248 -12 q 184 -12 141 38 q 98 88 98 163 q 98 303 205 423 q 311 542 437 542 q 504 542 548 493 q 592 444 592 369 q 592 223 486 105 q 379 -12 248 -12 z m 303 30 q 375 30 430 123 q 485 216 485 339 q 485 501 387 501 q 317 501 261 405 q 205 309 205 189 q 205 30 303 30 z"},"N":{"x_min":0,"x_max":1030,"ha":1030,"o":"m 39 46 l 109 117 q 159 36 246 36 q 304 36 348 85 q 393 133 409 214 l 501 678 q 476 682 466 682 q 386 682 332 624 q 278 567 278 481 l 184 435 q 193 564 290 644 q 386 723 533 723 l 580 723 q 630 594 712 448 l 774 337 q 839 224 870 153 l 926 436 q 955 582 1026 661 q 1098 741 1200 741 q 1236 741 1271 728 l 1235 662 q 1192 696 1152 696 q 1046 696 1010 512 l 937 145 l 914 0 l 852 -21 q 834 34 749 185 l 629 396 q 582 481 550 548 l 513 360 q 478 182 394 86 q 311 -9 191 -9 q 107 -9 39 46 z"},"+":{"x_min":0,"x_max":632,"ha":632,"o":"m 294 24 l 341 262 l 104 262 l 114 316 l 352 316 l 399 554 l 454 554 l 406 316 l 645 316 l 634 262 l 396 262 l 348 24 z"},"G":{"x_min":0,"x_max":759,"ha":759,"o":"m 173 -157 l 256 -110 q 314 -164 406 -164 q 471 -164 505 -126 q 540 -88 561 5 q 562 12 565 24 q 479 0 384 0 q 258 0 186 72 q 113 144 113 269 q 113 463 249 602 q 385 741 576 741 q 685 741 789 713 l 750 584 l 720 584 q 722 602 722 614 q 722 658 675 684 q 628 711 551 711 q 420 711 321 579 q 222 447 222 274 q 222 168 285 107 q 349 45 458 45 q 525 45 573 61 l 621 304 l 535 304 q 449 304 378 249 l 385 283 q 473 368 561 368 l 735 368 l 697 217 l 674 102 q 643 -57 562 -131 q 482 -205 342 -205 q 236 -205 173 -157 z"},"q":{"x_min":0,"x_max":621,"ha":621,"o":"m 475 265 l 468 265 q 413 143 336 65 q 259 -12 192 -12 q 90 -12 90 117 q 90 258 203 395 q 319 536 488 536 q 546 536 630 530 l 595 386 l 508 -53 q 488 -153 488 -192 q 488 -235 521 -235 q 550 -235 602 -218 l 595 -252 l 351 -325 l 388 -168 z m 514 460 q 460 488 395 488 q 309 488 256 375 q 193 242 193 136 q 193 60 237 60 q 291 60 374 171 q 470 299 491 350 z"},"d":{"x_min":0,"x_max":668,"ha":668,"o":"m 480 265 l 472 265 q 416 142 338 65 q 261 -12 194 -12 q 90 -12 90 117 q 90 205 141 301 q 191 397 271 463 q 325 506 379 521 q 433 536 535 536 q 563 633 595 684 q 626 735 683 779 q 779 855 896 855 q 944 855 984 845 l 917 776 q 859 801 818 801 q 740 801 701 744 q 661 688 630 531 l 553 145 q 542 88 542 72 q 542 41 570 41 q 619 41 716 148 l 707 103 q 601 -12 516 -12 q 445 -12 445 62 q 445 85 457 145 z m 520 460 q 459 488 397 488 q 309 488 256 375 q 193 243 193 137 q 193 60 238 60 q 280 60 359 148 q 438 237 498 350 z"},"1":{"x_min":0,"x_max":434,"ha":434,"o":"m 72 0 l 85 30 l 120 30 q 165 30 175 44 q 186 58 204 141 l 252 384 q 263 437 263 456 q 263 478 220 481 l 175 485 l 175 515 l 386 542 l 349 386 l 301 145 q 287 68 287 61 q 287 30 329 30 l 372 30 l 374 0 z"},"5":{"x_min":0,"x_max":542,"ha":542,"o":"m 25 -118 l 85 -55 q 140 -115 226 -115 q 304 -115 354 -60 q 404 -5 404 81 q 404 217 216 217 q 181 217 137 209 l 201 530 l 581 530 l 547 446 l 229 446 l 186 295 q 223 302 251 302 q 361 302 430 250 q 499 198 499 115 q 499 11 402 -73 q 305 -157 185 -157 q 106 -157 25 -118 z"}}}
